<svg width="30" height="30" viewBox="0 0 30 30" fill="none" xmlns="http://www.w3.org/2000/svg">
<rect x="0.5" y="0.5" width="29" height="29" rx="11.5" fill="#E9EEF6" stroke="#01B3FD"/>
<path d="M9.17917 12.3542V12.3455L9.17102 12.3424C8.68722 12.1628 8.28989 11.8622 7.97881 11.4405C7.66794 11.0191 7.5125 10.5391 7.5125 10C7.5125 9.30883 7.75427 8.72175 8.23801 8.23801C8.72175 7.75427 9.30883 7.5125 10 7.5125C10.6912 7.5125 11.2783 7.75427 11.762 8.23801C12.2457 8.72175 12.4875 9.30883 12.4875 10C12.4875 10.5391 12.3321 11.0191 12.0212 11.4405C11.7101 11.8622 11.3128 12.1628 10.829 12.3424L10.8208 12.3455V12.3542V19.1667C10.8208 19.6283 10.9854 20.0239 11.3141 20.3526C11.6428 20.6813 12.0383 20.8458 12.5 20.8458C12.9617 20.8458 13.3572 20.6813 13.6859 20.3526C14.0146 20.0239 14.1792 19.6283 14.1792 19.1667V10.8333C14.1792 9.92001 14.5042 9.13846 15.1547 8.48801C15.8051 7.83755 16.5867 7.5125 17.5 7.5125C18.4133 7.5125 19.1949 7.83755 19.8453 8.48801C20.4958 9.13846 20.8208 9.92001 20.8208 10.8333V17.6458V17.6545L20.829 17.6576C21.3128 17.8372 21.7101 18.1378 22.0212 18.5595C22.3321 18.9809 22.4875 19.4609 22.4875 20C22.4875 20.6912 22.2457 21.2783 21.762 21.762C21.2783 22.2457 20.6912 22.4875 20 22.4875C19.3088 22.4875 18.7217 22.2457 18.238 21.762C17.7543 21.2783 17.5125 20.6912 17.5125 20C17.5125 19.4609 17.6679 18.9774 17.9789 18.549C18.2899 18.1205 18.6871 17.8235 19.1707 17.6577L19.1792 17.6548V17.6458V10.8333C19.1792 10.3717 19.0146 9.97613 18.6859 9.64741C18.3572 9.3187 17.9617 9.15417 17.5 9.15417C17.0383 9.15417 16.6428 9.3187 16.3141 9.64741C15.9854 9.97613 15.8208 10.3717 15.8208 10.8333V19.1667C15.8208 20.08 15.4958 20.8615 14.8453 21.512C14.1949 22.1624 13.4133 22.4875 12.5 22.4875C11.5867 22.4875 10.8051 22.1624 10.1547 21.512C9.50422 20.8615 9.17917 20.08 9.17917 19.1667V12.3542ZM10 10.8458C10.2393 10.8458 10.4404 10.7648 10.6026 10.6026C10.7648 10.4404 10.8458 10.2393 10.8458 10C10.8458 9.76074 10.7648 9.55959 10.6026 9.39741C10.4404 9.23523 10.2393 9.15417 10 9.15417C9.76074 9.15417 9.55959 9.23523 9.39741 9.39741C9.23523 9.55959 9.15417 9.76074 9.15417 10C9.15417 10.2393 9.23523 10.4404 9.39741 10.6026C9.55959 10.7648 9.76074 10.8458 10 10.8458ZM20 20.8458C20.2393 20.8458 20.4404 20.7648 20.6026 20.6026C20.7648 20.4404 20.8458 20.2393 20.8458 20C20.8458 19.7607 20.7648 19.5596 20.6026 19.3974C20.4404 19.2352 20.2393 19.1542 20 19.1542C19.7607 19.1542 19.5596 19.2352 19.3974 19.3974C19.2352 19.5596 19.1542 19.7607 19.1542 20C19.1542 20.2393 19.2352 20.4404 19.3974 20.6026C19.5596 20.7648 19.7607 20.8458 20 20.8458Z" fill="#01B3FD" stroke="#01B3FD" stroke-width="0.025"/>
</svg>
