<svg width="30" height="30" viewBox="0 0 30 30" fill="none" xmlns="http://www.w3.org/2000/svg">
<rect x="0.5" y="0.5" width="29" height="29" rx="11.5" fill="#E9EEF6" stroke="#01B3FD"/>
<path d="M10.5 23.6667C9.80556 23.6667 9.21528 23.4236 8.72917 22.9375C8.24306 22.4514 8 21.8611 8 21.1667V18.6667H10.5V7L11.75 8.25L13 7L14.25 8.25L15.5 7L16.75 8.25L18 7L19.25 8.25L20.5 7L21.75 8.25L23 7V21.1667C23 21.8611 22.7569 22.4514 22.2708 22.9375C21.7847 23.4236 21.1944 23.6667 20.5 23.6667H10.5ZM20.5 22C20.7361 22 20.934 21.9201 21.0938 21.7604C21.2535 21.6007 21.3333 21.4028 21.3333 21.1667V9.5H12.1667V18.6667H19.6667V21.1667C19.6667 21.4028 19.7465 21.6007 19.9063 21.7604C20.066 21.9201 20.2639 22 20.5 22ZM13 12.8333V11.1667H18V12.8333H13ZM13 15.3333V13.6667H18V15.3333H13ZM19.6667 12.8333C19.4306 12.8333 19.2326 12.7535 19.0729 12.5937C18.9132 12.434 18.8333 12.2361 18.8333 12C18.8333 11.7639 18.9132 11.566 19.0729 11.4062C19.2326 11.2465 19.4306 11.1667 19.6667 11.1667C19.9028 11.1667 20.1007 11.2465 20.2604 11.4062C20.4201 11.566 20.5 11.7639 20.5 12C20.5 12.2361 20.4201 12.434 20.2604 12.5937C20.1007 12.7535 19.9028 12.8333 19.6667 12.8333ZM19.6667 15.3333C19.4306 15.3333 19.2326 15.2535 19.0729 15.0937C18.9132 14.934 18.8333 14.7361 18.8333 14.5C18.8333 14.2639 18.9132 14.066 19.0729 13.9062C19.2326 13.7465 19.4306 13.6667 19.6667 13.6667C19.9028 13.6667 20.1007 13.7465 20.2604 13.9062C20.4201 14.066 20.5 14.2639 20.5 14.5C20.5 14.7361 20.4201 14.934 20.2604 15.0937C20.1007 15.2535 19.9028 15.3333 19.6667 15.3333ZM10.5 22H18V20.3333H9.66667V21.1667C9.66667 21.4028 9.74653 21.6007 9.90625 21.7604C10.066 21.9201 10.2639 22 10.5 22Z" fill="#01B3FD"/>
</svg>
