<svg width="30" height="30" viewBox="0 0 30 30" fill="none" xmlns="http://www.w3.org/2000/svg">
<rect x="0.5" y="0.5" width="29" height="29" rx="11.5" fill="#01B3FD" stroke="#01B3FD"/>
<path d="M12.75 22.375V16.125L13.7578 12.6354C13.8359 12.375 13.9688 12.1623 14.1562 11.9974C14.3438 11.8325 14.5625 11.75 14.8125 11.75H21.9375C22.1948 11.75 22.4155 11.8325 22.5994 11.9974C22.7831 12.1623 22.9141 12.375 22.9922 12.6354L24 16.125V22.375C24 22.5512 23.9459 22.6995 23.8378 22.8198C23.7295 22.9399 23.5961 23 23.4375 23H22.8654C22.7155 23 22.5859 22.9399 22.4766 22.8198C22.3672 22.6995 22.3125 22.5512 22.3125 22.375V21.75H14.4375V22.375C14.4375 22.5512 14.3834 22.6995 14.2753 22.8198C14.167 22.9399 14.0336 23 13.875 23H13.3029C13.153 23 13.0234 22.9399 12.9141 22.8198C12.8047 22.6995 12.75 22.5512 12.75 22.375ZM14.6953 15.5H22.0547L21.5156 13.625H15.2344L14.6953 15.5ZM15.8323 19.5625C16.0746 19.5625 16.2777 19.4732 16.4416 19.2945C16.6055 19.1159 16.6875 18.8945 16.6875 18.6305C16.6875 18.3664 16.6055 18.1432 16.4416 17.9609C16.2777 17.7786 16.0746 17.6875 15.8323 17.6875C15.5899 17.6875 15.3906 17.7768 15.2344 17.9555C15.0781 18.1341 15 18.3555 15 18.6195C15 18.8836 15.0781 19.1068 15.2344 19.2891C15.3906 19.4714 15.5899 19.5625 15.8323 19.5625ZM20.9177 19.5625C21.1601 19.5625 21.3594 19.4732 21.5156 19.2945C21.6719 19.1159 21.75 18.8945 21.75 18.6305C21.75 18.3664 21.6719 18.1432 21.5156 17.9609C21.3594 17.7786 21.1601 17.6875 20.9177 17.6875C20.6754 17.6875 20.4723 17.7768 20.3084 17.9555C20.1445 18.1341 20.0625 18.3555 20.0625 18.6195C20.0625 18.8836 20.1445 19.1068 20.3084 19.2891C20.4723 19.4714 20.6754 19.5625 20.9177 19.5625ZM7.6875 23V22.375L8.8125 21.125H8.25C7.625 21.125 7.09375 20.8819 6.65625 20.3958C6.21875 19.9097 6 19.3194 6 18.625V10.5C6 9.5625 6.41406 8.91146 7.24219 8.54688C8.07031 8.18229 9.53125 8 11.625 8C13.7188 8 15.1797 8.18056 16.0078 8.54167C16.8359 8.90278 17.25 9.55556 17.25 10.5H7.6875V15.5H11.625V23H7.6875ZM8.52633 18.9375C8.76398 18.9375 8.96484 18.8482 9.12891 18.6695C9.29297 18.4909 9.375 18.2695 9.375 18.0055C9.375 17.7414 9.29461 17.5182 9.13383 17.3359C8.97305 17.1536 8.77383 17.0625 8.53617 17.0625C8.29852 17.0625 8.09766 17.1518 7.93359 17.3305C7.76953 17.5091 7.6875 17.7305 7.6875 17.9945C7.6875 18.2586 7.76789 18.4818 7.92867 18.6641C8.08945 18.8464 8.28867 18.9375 8.52633 18.9375ZM14.4375 19.875H22.3125V17.375H14.4375V19.875Z" fill="#E9EEF6"/>
</svg>
