<svg width="30" height="30" viewBox="0 0 30 30" fill="none" xmlns="http://www.w3.org/2000/svg">
<rect x="0.5" y="0.5" width="29" height="29" rx="11.5" fill="#01B3FD" stroke="#01B3FD"/>
<path d="M20.8333 18.6364C19.8333 18.6364 18.9514 18.2955 18.1875 17.6136C17.4236 16.9318 16.9444 16.0606 16.75 15H14.2708L13.2708 13.1818H16.75C16.8194 12.8485 16.9132 12.5303 17.0312 12.2273C17.1493 11.9242 17.3056 11.6364 17.5 11.3636H12.25L11.25 9.54545H18.375L17.4583 6.81818H14.1667V5H17.4583C17.8194 5 18.1389 5.10985 18.4167 5.32955C18.6944 5.54924 18.8958 5.84091 19.0208 6.20455L20.1458 9.54545H20.8333C21.9861 9.54545 22.9688 9.98864 23.7812 10.875C24.5938 11.7614 25 12.8333 25 14.0909C25 15.3485 24.5938 16.4205 23.7812 17.3068C22.9688 18.1932 21.9861 18.6364 20.8333 18.6364ZM20.8333 16.8182C21.5278 16.8182 22.1181 16.553 22.6042 16.0227C23.0903 15.4924 23.3333 14.8485 23.3333 14.0909C23.3333 13.3333 23.0903 12.6894 22.6042 12.1591C22.1181 11.6288 21.5278 11.3636 20.8333 11.3636H20.7708L21.5833 13.7955L20 14.4091L19.2083 12.0227C18.9306 12.2803 18.7153 12.5909 18.5625 12.9545C18.4097 13.3182 18.3333 13.697 18.3333 14.0909C18.3333 14.8485 18.5764 15.4924 19.0625 16.0227C19.5486 16.553 20.1389 16.8182 20.8333 16.8182ZM10.8333 25C10.1389 25 9.54861 24.7348 9.0625 24.2045C8.57639 23.6742 8.33333 23.0303 8.33333 22.2727H5V20.4545H8.97917C9.1875 20.2273 9.45139 20.0189 9.77083 19.8295C10.0903 19.6402 10.4444 19.5455 10.8333 19.5455C11.1806 19.5455 11.5139 19.6212 11.8333 19.7727C12.1528 19.9242 12.4375 20.1515 12.6875 20.4545H15V18.6364H5V16.8182H6.66667V14.0909H5V12.2727H10.8333L13.3333 16.8182H15C15.4583 16.8182 15.8507 16.9962 16.1771 17.3523C16.5035 17.7083 16.6667 18.1364 16.6667 18.6364V20.4545C16.6667 20.9545 16.5035 21.3826 16.1771 21.7386C15.8507 22.0947 15.4583 22.2727 15 22.2727H13.3333C13.3333 23.0303 13.0903 23.6742 12.6042 24.2045C12.1181 24.7348 11.5278 25 10.8333 25ZM8.33333 16.8182H11.3958L9.89583 14.0909H8.33333V16.8182ZM10.8333 23.1818C11.0694 23.1818 11.2674 23.0947 11.4271 22.9205C11.5868 22.7462 11.6667 22.5303 11.6667 22.2727C11.6667 22.0152 11.5868 21.7992 11.4271 21.625C11.2674 21.4508 11.0694 21.3636 10.8333 21.3636C10.5972 21.3636 10.3993 21.4508 10.2396 21.625C10.0799 21.7992 10 22.0152 10 22.2727C10 22.5303 10.0799 22.7462 10.2396 22.9205C10.3993 23.0947 10.5972 23.1818 10.8333 23.1818Z" fill="#E9EEF6"/>
</svg>
