<svg width="16" height="18" viewBox="0 0 16 18" fill="none" xmlns="http://www.w3.org/2000/svg">
<path d="M8.03995 3.16004C10.1492 3.16004 12.1581 3.90358 13.6647 5.29772C16.7784 8.17893 16.7784 12.919 13.6647 15.8002C11.8568 17.5661 9.3457 18.2167 6.93508 17.9379L7.43729 16.079C9.14481 16.2649 10.9528 15.7073 12.2585 14.499C14.5687 12.3613 14.5687 8.82953 12.2585 6.59891C11.1537 5.57654 9.54658 5.01889 8.03995 5.01889V9.29424L3.01783 4.64712L8.03995 0V3.16004ZM2.31474 15.8002C-0.296761 13.3837 -0.69853 9.66601 1.10943 6.78479L2.61606 8.17893C1.5112 10.2237 1.91297 12.826 3.82137 14.499C4.32358 14.9637 4.92624 15.3355 5.62933 15.6143L5.02668 17.4732C4.02226 17.1014 3.11828 16.5437 2.31474 15.8002Z" fill="#00E979"/>
</svg>
