<svg width="30" height="30" viewBox="0 0 30 30" fill="none" xmlns="http://www.w3.org/2000/svg">
<rect x="0.5" y="0.5" width="29" height="29" rx="11.5" fill="#E9EEF6" stroke="#01B3FD"/>
<path d="M14.625 20.625L11.6667 17.6667L12.875 16.4583L14.625 18.2083L18.125 14.7083L19.3333 15.9167L14.625 20.625ZM9.66667 23.6667C9.20833 23.6667 8.81597 23.5035 8.48958 23.1771C8.16319 22.8507 8 22.4583 8 22V10.3333C8 9.875 8.16319 9.48264 8.48958 9.15625C8.81597 8.82986 9.20833 8.66667 9.66667 8.66667H10.5V7H12.1667V8.66667H18.8333V7H20.5V8.66667H21.3333C21.7917 8.66667 22.184 8.82986 22.5104 9.15625C22.8368 9.48264 23 9.875 23 10.3333V22C23 22.4583 22.8368 22.8507 22.5104 23.1771C22.184 23.5035 21.7917 23.6667 21.3333 23.6667H9.66667ZM9.66667 22H21.3333V13.6667H9.66667V22ZM9.66667 12H21.3333V10.3333H9.66667V12Z" fill="#01B3FD"/>
</svg>
