<svg width="30" height="30" viewBox="0 0 30 30" fill="none" xmlns="http://www.w3.org/2000/svg">
<rect x="0.5" y="0.5" width="29" height="29" rx="11.5" fill="#E9EEF6" stroke="#01B3FD"/>
<path d="M17.6667 23L12.3333 21.25L8.2 22.75C7.9037 22.8611 7.62963 22.8299 7.37778 22.6562C7.12593 22.4826 7 22.25 7 21.9583V10.2917C7 10.1111 7.05556 9.95139 7.16667 9.8125C7.27778 9.67361 7.42963 9.56944 7.62222 9.5L12.3333 8L17.6667 9.75L21.8 8.25C22.0963 8.13889 22.3704 8.17014 22.6222 8.34375C22.8741 8.51736 23 8.75 23 9.04167V20.7083C23 20.8889 22.9444 21.0486 22.8333 21.1875C22.7222 21.3264 22.5704 21.4306 22.3778 21.5L17.6667 23ZM16.7778 20.9583V11.2083L13.2222 10.0417V19.7917L16.7778 20.9583ZM18.5556 20.9583L21.2222 20.125V10.25L18.5556 11.2083V20.9583ZM8.77778 20.75L11.4444 19.7917V10.0417L8.77778 10.875V20.75Z" fill="#01B3FD"/>
</svg>
