<svg width="30" height="30" viewBox="0 0 30 30" fill="none" xmlns="http://www.w3.org/2000/svg">
<rect x="0.5" y="0.5" width="29" height="29" rx="11.5" fill="#E9EEF6" stroke="#01B3FD"/>
<path d="M15.5 24C14.4583 24 13.4827 23.8053 12.573 23.4158C11.6632 23.0263 10.8715 22.5001 10.198 21.8372C9.52433 21.1745 8.98958 20.3955 8.59375 19.5003C8.19792 18.6052 8 17.6451 8 16.6202H9.60714C9.60714 18.2162 10.1838 19.5816 11.3371 20.7164C12.4903 21.8512 13.878 22.4186 15.5 22.4186C17.122 22.4186 18.5097 21.8512 19.6629 20.7164C20.8162 19.5816 21.3929 18.2162 21.3929 16.6202C21.3929 15.0241 20.8162 13.6587 19.6629 12.5239C18.5097 11.3891 17.1191 10.8217 15.4913 10.8217H15.3661L16.5045 11.9419L15.3661 13.062L12.2857 10.031L15.3661 7L16.5045 8.12016L15.3438 9.24031H15.5C16.5417 9.24031 17.5173 9.43506 18.427 9.82455C19.3368 10.214 20.1285 10.7402 20.802 11.4031C21.4757 12.0658 22.0104 12.8448 22.4063 13.74C22.8021 14.6351 23 15.5952 23 16.6202C23 17.6451 22.8021 18.6052 22.4063 19.5003C22.0104 20.3955 21.4757 21.1745 20.802 21.8372C20.1285 22.5001 19.3368 23.0263 18.427 23.4158C17.5173 23.8053 16.5417 24 15.5 24Z" fill="#01B3FD"/>
</svg>
