<svg width="30" height="30" viewBox="0 0 30 30" fill="none" xmlns="http://www.w3.org/2000/svg">
<rect width="30" height="30" rx="12" fill="#01B3FD"/>
<path d="M12.5 22.5C11.5833 22.5 10.7986 22.1736 10.1458 21.5208C9.49306 20.8681 9.16667 20.0833 9.16667 19.1667V12.3542C8.68056 12.1736 8.28125 11.8715 7.96875 11.4479C7.65625 11.0243 7.5 10.5417 7.5 10C7.5 9.30556 7.74306 8.71528 8.22917 8.22917C8.71528 7.74306 9.30556 7.5 10 7.5C10.6944 7.5 11.2847 7.74306 11.7708 8.22917C12.2569 8.71528 12.5 9.30556 12.5 10C12.5 10.5417 12.3438 11.0243 12.0312 11.4479C11.7188 11.8715 11.3194 12.1736 10.8333 12.3542V19.1667C10.8333 19.625 10.9965 20.0174 11.3229 20.3438C11.6493 20.6701 12.0417 20.8333 12.5 20.8333C12.9583 20.8333 13.3507 20.6701 13.6771 20.3438C14.0035 20.0174 14.1667 19.625 14.1667 19.1667V10.8333C14.1667 9.91667 14.4931 9.13194 15.1458 8.47917C15.7986 7.82639 16.5833 7.5 17.5 7.5C18.4167 7.5 19.2014 7.82639 19.8542 8.47917C20.5069 9.13194 20.8333 9.91667 20.8333 10.8333V17.6458C21.3194 17.8264 21.7188 18.1285 22.0312 18.5521C22.3438 18.9757 22.5 19.4583 22.5 20C22.5 20.6944 22.2569 21.2847 21.7708 21.7708C21.2847 22.2569 20.6944 22.5 20 22.5C19.3056 22.5 18.7153 22.2569 18.2292 21.7708C17.7431 21.2847 17.5 20.6944 17.5 20C17.5 19.4583 17.6562 18.9722 17.9688 18.5417C18.2812 18.1111 18.6806 17.8125 19.1667 17.6458V10.8333C19.1667 10.375 19.0035 9.98264 18.6771 9.65625C18.3507 9.32986 17.9583 9.16667 17.5 9.16667C17.0417 9.16667 16.6493 9.32986 16.3229 9.65625C15.9965 9.98264 15.8333 10.375 15.8333 10.8333V19.1667C15.8333 20.0833 15.5069 20.8681 14.8542 21.5208C14.2014 22.1736 13.4167 22.5 12.5 22.5ZM10 10.8333C10.2361 10.8333 10.434 10.7535 10.5938 10.5938C10.7535 10.434 10.8333 10.2361 10.8333 10C10.8333 9.76389 10.7535 9.56597 10.5938 9.40625C10.434 9.24653 10.2361 9.16667 10 9.16667C9.76389 9.16667 9.56597 9.24653 9.40625 9.40625C9.24653 9.56597 9.16667 9.76389 9.16667 10C9.16667 10.2361 9.24653 10.434 9.40625 10.5938C9.56597 10.7535 9.76389 10.8333 10 10.8333ZM20 20.8333C20.2361 20.8333 20.434 20.7535 20.5938 20.5938C20.7535 20.434 20.8333 20.2361 20.8333 20C20.8333 19.7639 20.7535 19.566 20.5938 19.4062C20.434 19.2465 20.2361 19.1667 20 19.1667C19.7639 19.1667 19.566 19.2465 19.4062 19.4062C19.2465 19.566 19.1667 19.7639 19.1667 20C19.1667 20.2361 19.2465 20.434 19.4062 20.5938C19.566 20.7535 19.7639 20.8333 20 20.8333Z" fill="#E9EEF6"/>
</svg>
